<svg width="1051" height="899" viewBox="0 0 1051 899" fill="none" xmlns="http://www.w3.org/2000/svg">
<g filter="url(#filter0_i_3256_124)">
<rect width="1051" height="899" rx="40" fill="#FAFAF9"/>
<rect x="2" y="2" width="1047" height="895" rx="38" stroke="#2E2E2E" stroke-width="4"/>
<path fill-rule="evenodd" clip-rule="evenodd" d="M421.261 204.75L318.022 273.445L318.011 439.195L318 604.945H320.876C323.483 604.945 325.48 602.578 342.126 579.759C352.232 565.907 367.293 545.32 375.596 534.009L390.693 513.445L407.596 512.814C478.458 510.166 539.372 478.17 562.859 431.26C576.046 404.921 574.56 377.41 559.22 363.907C551.502 357.114 539.327 353.905 529.225 356.002C514.427 359.074 507.458 364.349 474.25 397.61C459.813 412.071 448 423.777 448 423.624C448 423.471 451.617 417.293 456.039 409.895C465.788 393.584 476.503 371.964 481.539 358.445C483.588 352.945 487.623 338.995 490.506 327.445C498.112 296.975 503.347 285.668 515.38 273.722C522.805 266.351 530.031 261.813 540.165 258.158C546.677 255.81 548.959 255.513 560.5 255.513C572.041 255.513 574.323 255.81 580.835 258.158C597.468 264.157 611.02 275.868 617.915 290.202C624.803 304.523 625.202 308.536 624.763 359.112C624.406 400.104 624.214 404.181 622.208 413.211C611.184 462.838 578.644 499.88 533 514.758C517.381 519.85 508.568 521.11 484.528 521.687L462.556 522.215L434.528 543.794C383.095 583.393 357.509 603.167 356.55 604.06C355.999 604.573 435.044 604.945 544.8 604.945H734V439.447V273.95L630.504 204.947C573.581 166.996 526.443 135.97 525.754 136C525.064 136.03 478.042 166.968 421.261 204.75ZM621.5 220.765L715.5 283.445L715.753 435.195L716.006 586.945L654.253 586.858L592.5 586.77L566.5 559.857C552.2 545.055 540.385 532.601 540.245 532.181C540.105 531.761 542.355 530.586 545.245 529.569C548.135 528.553 554.522 525.713 559.437 523.26C596.437 504.79 624.784 470.232 636.391 429.445C641.674 410.879 642.161 405.94 642.701 365.377L643.209 327.309L663.221 316.377C674.228 310.364 683.905 304.965 684.726 304.379C685.897 303.542 680.316 300.559 658.827 290.534C633.144 278.553 631.296 277.513 629.195 273.863C625.404 267.276 615.132 257.161 606.095 251.116C570.67 227.421 522.944 235.055 496.081 268.712C485.371 282.13 481.25 291.812 474.49 319.434C465.582 355.828 456.227 374.695 417.386 434.607C389.899 477.006 354.092 531.984 342.267 549.945L336.013 559.445L336.007 421.651L336 283.857L430.75 220.916C482.863 186.298 525.95 157.999 526.5 158.03C527.05 158.06 569.8 186.291 621.5 220.765ZM567.143 289.478C558.146 297.049 562.911 311.951 574.327 311.941C586.44 311.93 592.023 298.768 583.521 290.266C580.641 287.386 579.533 286.945 575.177 286.945C571.26 286.945 569.49 287.503 567.143 289.478ZM543.282 374.316C552.382 378.193 556.352 389.701 553.584 404.172C547.48 436.073 519.333 464.352 477.719 480.393C457.273 488.275 435.13 493.329 415.5 494.595L405.5 495.24L407.5 492.874C411.679 487.93 465.215 430.683 481.313 413.945C506.127 388.142 515.996 379.783 526.976 375.265C533.31 372.659 538.662 372.348 543.282 374.316ZM542.944 562.22L567.339 586.995L550.494 586.72L533.649 586.445L517.824 563.475C509.121 550.841 502 540.154 502 539.725C502 539.296 504.137 538.892 506.75 538.827C509.363 538.762 512.85 538.368 514.5 537.951C516.15 537.535 517.736 537.251 518.025 537.32C518.313 537.389 529.527 548.594 542.944 562.22ZM495.392 563.464C503.976 575.849 511 586.199 511 586.464C511 586.728 487.938 586.931 459.75 586.913L408.5 586.882L411.483 584.663C413.123 583.443 426.623 573.111 441.483 561.704L468.5 540.962L474.142 540.954L479.784 540.945L495.392 563.464Z" fill="#9998F8"/>
<path d="M121.916 754V662.92H158.384C165.085 662.92 170.673 663.913 175.15 665.899C179.627 667.886 182.992 670.643 185.246 674.171C187.499 677.67 188.625 681.702 188.625 686.268C188.625 689.826 187.914 692.954 186.491 695.652C185.068 698.32 183.111 700.514 180.62 702.234C178.16 703.924 175.343 705.124 172.171 705.836V706.725C175.639 706.874 178.886 707.852 181.91 709.661C184.964 711.469 187.44 714.004 189.337 717.265C191.235 720.497 192.183 724.351 192.183 728.828C192.183 733.661 190.983 737.975 188.581 741.77C186.209 745.535 182.696 748.515 178.041 750.709C173.386 752.903 167.649 754 160.83 754H121.916ZM141.173 738.257H156.872C162.238 738.257 166.152 737.234 168.613 735.188C171.074 733.113 172.304 730.355 172.304 726.916C172.304 724.396 171.696 722.172 170.481 720.245C169.265 718.318 167.531 716.806 165.277 715.709C163.054 714.612 160.4 714.063 157.317 714.063H141.173V738.257ZM141.173 701.033H155.449C158.087 701.033 160.43 700.573 162.475 699.654C164.551 698.705 166.182 697.371 167.367 695.652C168.583 693.932 169.191 691.871 169.191 689.47C169.191 686.179 168.02 683.525 165.677 681.509C163.365 679.493 160.074 678.485 155.805 678.485H141.173V701.033ZM204.358 754V685.69H223.303V754H204.358ZM213.875 676.884C211.058 676.884 208.642 675.95 206.626 674.082C204.639 672.185 203.646 669.917 203.646 667.278C203.646 664.669 204.639 662.43 206.626 660.562C208.642 658.665 211.058 657.716 213.875 657.716C216.692 657.716 219.093 658.665 221.08 660.562C223.096 662.43 224.104 664.669 224.104 667.278C224.104 669.917 223.096 672.185 221.08 674.082C219.093 675.95 216.692 676.884 213.875 676.884ZM238.48 754V685.69H256.847V697.608H257.558C258.804 693.369 260.894 690.167 263.829 688.002C266.764 685.808 270.144 684.711 273.969 684.711C274.918 684.711 275.941 684.771 277.038 684.889C278.135 685.008 279.098 685.171 279.928 685.378V702.189C279.039 701.922 277.808 701.685 276.237 701.478C274.666 701.27 273.228 701.166 271.923 701.166C269.136 701.166 266.646 701.774 264.452 702.99C262.287 704.176 260.568 705.836 259.293 707.971C258.048 710.105 257.425 712.566 257.425 715.353V754H238.48ZM311.715 755.112C306.527 755.112 301.827 753.778 297.617 751.109C293.437 748.411 290.116 744.453 287.655 739.235C285.224 733.987 284.009 727.553 284.009 719.934C284.009 712.107 285.269 705.599 287.789 700.41C290.309 695.192 293.659 691.293 297.84 688.714C302.05 686.105 306.66 684.8 311.671 684.8C315.495 684.8 318.683 685.452 321.232 686.757C323.812 688.032 325.887 689.633 327.459 691.56C329.06 693.458 330.275 695.325 331.105 697.164H331.684V662.92H350.585V754H331.906V743.06H331.105C330.216 744.957 328.956 746.84 327.325 748.708C325.724 750.546 323.634 752.073 321.055 753.288C318.505 754.504 315.392 755.112 311.715 755.112ZM317.719 740.036C320.773 740.036 323.352 739.205 325.457 737.545C327.592 735.855 329.223 733.498 330.349 730.474C331.506 727.45 332.084 723.907 332.084 719.845C332.084 715.783 331.521 712.255 330.394 709.26C329.267 706.266 327.637 703.953 325.502 702.323C323.367 700.692 320.773 699.877 317.719 699.877C314.606 699.877 311.982 700.721 309.847 702.411C307.713 704.101 306.097 706.444 305 709.438C303.903 712.433 303.354 715.902 303.354 719.845C303.354 723.818 303.903 727.331 305 730.385C306.127 733.409 307.742 735.781 309.847 737.501C311.982 739.191 314.606 740.036 317.719 740.036ZM366.517 754V662.92H402.985C409.685 662.92 415.274 663.913 419.751 665.899C424.228 667.886 427.593 670.643 429.846 674.171C432.1 677.67 433.226 681.702 433.226 686.268C433.226 689.826 432.515 692.954 431.092 695.652C429.668 698.32 427.712 700.514 425.221 702.234C422.76 703.924 419.944 705.124 416.771 705.836V706.725C420.24 706.874 423.487 707.852 426.511 709.661C429.565 711.469 432.04 714.004 433.938 717.265C435.835 720.497 436.784 724.351 436.784 728.828C436.784 733.661 435.583 737.975 433.182 741.77C430.81 745.535 427.297 748.515 422.642 750.709C417.987 752.903 412.25 754 405.431 754H366.517ZM385.774 738.257H401.473C406.839 738.257 410.753 737.234 413.213 735.188C415.674 733.113 416.905 730.355 416.905 726.916C416.905 724.396 416.297 722.172 415.081 720.245C413.866 718.318 412.131 716.806 409.878 715.709C407.654 714.612 405.001 714.063 401.917 714.063H385.774V738.257ZM385.774 701.033H400.049C402.688 701.033 405.03 700.573 407.076 699.654C409.152 698.705 410.782 697.371 411.968 695.652C413.184 693.932 413.792 691.871 413.792 689.47C413.792 686.179 412.62 683.525 410.278 681.509C407.966 679.493 404.675 678.485 400.405 678.485H385.774V701.033ZM479.823 755.334C472.915 755.334 466.94 753.867 461.9 750.931C456.89 747.967 453.02 743.845 450.293 738.568C447.565 733.261 446.201 727.109 446.201 720.112C446.201 713.055 447.565 706.888 450.293 701.611C453.02 696.304 456.89 692.183 461.9 689.247C466.94 686.283 472.915 684.8 479.823 684.8C486.731 684.8 492.69 686.283 497.701 689.247C502.741 692.183 506.625 696.304 509.353 701.611C512.08 706.888 513.444 713.055 513.444 720.112C513.444 727.109 512.08 733.261 509.353 738.568C506.625 743.845 502.741 747.967 497.701 750.931C492.69 753.867 486.731 755.334 479.823 755.334ZM479.912 740.658C483.054 740.658 485.678 739.769 487.783 737.99C489.888 736.181 491.475 733.72 492.542 730.607C493.639 727.494 494.187 723.951 494.187 719.978C494.187 716.005 493.639 712.462 492.542 709.349C491.475 706.236 489.888 703.775 487.783 701.967C485.678 700.158 483.054 699.254 479.912 699.254C476.739 699.254 474.071 700.158 471.907 701.967C469.772 703.775 468.156 706.236 467.059 709.349C465.992 712.462 465.458 716.005 465.458 719.978C465.458 723.951 465.992 727.494 467.059 730.607C468.156 733.72 469.772 736.181 471.907 737.99C474.071 739.769 476.739 740.658 479.912 740.658ZM539.15 685.69L551.691 709.572L564.544 685.69H583.978L564.188 719.845L584.512 754H565.166L551.691 730.385L538.438 754H518.87L539.15 719.845L519.581 685.69H539.15Z" fill="#9998F8"/>
<path d="M624.571 754V662.92H643.828V738.123H682.875V754H624.571ZM714.751 755.29C710.392 755.29 706.508 754.534 703.099 753.022C699.689 751.48 696.991 749.212 695.005 746.217C693.048 743.193 692.069 739.428 692.069 734.921C692.069 731.126 692.766 727.939 694.16 725.359C695.553 722.78 697.451 720.705 699.852 719.133C702.254 717.562 704.981 716.376 708.035 715.575C711.119 714.775 714.35 714.212 717.73 713.885C721.703 713.47 724.905 713.085 727.336 712.729C729.768 712.344 731.532 711.78 732.629 711.039C733.726 710.298 734.274 709.201 734.274 707.748V707.481C734.274 704.665 733.385 702.486 731.606 700.944C729.857 699.402 727.366 698.631 724.134 698.631C720.725 698.631 718.012 699.387 715.996 700.899C713.98 702.382 712.646 704.25 711.993 706.503L694.471 705.08C695.36 700.929 697.11 697.342 699.719 694.317C702.328 691.264 705.693 688.921 709.814 687.291C713.965 685.63 718.768 684.8 724.223 684.8C728.018 684.8 731.65 685.245 735.119 686.134C738.618 687.024 741.716 688.403 744.414 690.27C747.142 692.138 749.291 694.54 750.863 697.475C752.434 700.381 753.22 703.864 753.22 707.926V754H735.253V744.527H734.719C733.622 746.662 732.154 748.545 730.316 750.175C728.478 751.776 726.269 753.036 723.69 753.956C721.11 754.845 718.131 755.29 714.751 755.29ZM720.176 742.215C722.963 742.215 725.424 741.666 727.559 740.569C729.694 739.443 731.369 737.93 732.584 736.033C733.8 734.135 734.408 731.986 734.408 729.584V722.335C733.815 722.721 732.999 723.077 731.962 723.403C730.954 723.699 729.812 723.981 728.537 724.248C727.262 724.485 725.987 724.707 724.713 724.915C723.438 725.093 722.281 725.256 721.244 725.404C719.02 725.73 717.078 726.249 715.418 726.96C713.757 727.672 712.468 728.636 711.549 729.851C710.629 731.037 710.17 732.52 710.17 734.299C710.17 736.878 711.104 738.85 712.972 740.213C714.869 741.548 717.271 742.215 720.176 742.215ZM768.274 754V662.92H787.219V697.164H787.797C788.627 695.325 789.828 693.458 791.4 691.56C793.001 689.633 795.076 688.032 797.626 686.757C800.205 685.452 803.407 684.8 807.232 684.8C812.213 684.8 816.808 686.105 821.019 688.714C825.229 691.293 828.594 695.192 831.114 700.41C833.634 705.599 834.894 712.107 834.894 719.934C834.894 727.553 833.664 733.987 831.203 739.235C828.772 744.453 825.451 748.411 821.241 751.109C817.06 753.778 812.376 755.112 807.187 755.112C803.511 755.112 800.383 754.504 797.804 753.288C795.254 752.073 793.164 750.546 791.533 748.708C789.902 746.84 788.657 744.957 787.797 743.06H786.952V754H768.274ZM786.819 719.845C786.819 723.907 787.382 727.45 788.509 730.474C789.636 733.498 791.266 735.855 793.401 737.545C795.536 739.205 798.13 740.036 801.184 740.036C804.267 740.036 806.876 739.191 809.011 737.501C811.146 735.781 812.761 733.409 813.858 730.385C814.985 727.331 815.548 723.818 815.548 719.845C815.548 715.902 815 712.433 813.903 709.438C812.806 706.444 811.19 704.101 809.055 702.411C806.921 700.721 804.297 699.877 801.184 699.877C798.1 699.877 795.491 700.692 793.356 702.323C791.251 703.953 789.636 706.266 788.509 709.26C787.382 712.255 786.819 715.783 786.819 719.845ZM904.372 705.169L887.027 706.236C886.731 704.754 886.093 703.42 885.115 702.234C884.137 701.018 882.847 700.054 881.246 699.343C879.675 698.602 877.792 698.231 875.598 698.231C872.663 698.231 870.187 698.854 868.171 700.099C866.155 701.314 865.147 702.945 865.147 704.991C865.147 706.622 865.799 708 867.104 709.127C868.408 710.254 870.647 711.158 873.819 711.84L886.182 714.33C892.824 715.694 897.775 717.888 901.036 720.912C904.298 723.936 905.928 727.909 905.928 732.831C905.928 737.308 904.609 741.236 901.97 744.616C899.361 747.996 895.774 750.635 891.208 752.532C886.672 754.4 881.439 755.334 875.509 755.334C866.466 755.334 859.261 753.452 853.895 749.686C848.558 745.891 845.43 740.732 844.511 734.21L863.145 733.231C863.709 735.988 865.073 738.094 867.237 739.546C869.401 740.969 872.173 741.681 875.553 741.681C878.874 741.681 881.542 741.044 883.559 739.769C885.604 738.464 886.642 736.789 886.672 734.743C886.642 733.024 885.916 731.615 884.492 730.518C883.069 729.392 880.875 728.532 877.91 727.939L866.081 725.582C859.41 724.248 854.444 721.935 851.182 718.644C847.951 715.353 846.335 711.158 846.335 706.058C846.335 701.67 847.521 697.89 849.893 694.718C852.294 691.545 855.659 689.099 859.988 687.38C864.346 685.66 869.446 684.8 875.287 684.8C883.914 684.8 890.704 686.624 895.655 690.27C900.636 693.917 903.542 698.883 904.372 705.169Z" fill="#F26D6D"/>
</g>
<defs>
<filter id="filter0_i_3256_124" x="0" y="0" width="1051" height="899" filterUnits="userSpaceOnUse" color-interpolation-filters="sRGB">
<feFlood flood-opacity="0" result="BackgroundImageFix"/>
<feBlend mode="normal" in="SourceGraphic" in2="BackgroundImageFix" result="shape"/>
<feColorMatrix in="SourceAlpha" type="matrix" values="0 0 0 0 0 0 0 0 0 0 0 0 0 0 0 0 0 0 127 0" result="hardAlpha"/>
<feMorphology radius="11" operator="erode" in="SourceAlpha" result="effect1_innerShadow_3256_124"/>
<feOffset/>
<feGaussianBlur stdDeviation="5.2"/>
<feComposite in2="hardAlpha" operator="arithmetic" k2="-1" k3="1"/>
<feColorMatrix type="matrix" values="0 0 0 0 0.180392 0 0 0 0 0.180392 0 0 0 0 0.180392 0 0 0 0.25 0"/>
<feBlend mode="normal" in2="shape" result="effect1_innerShadow_3256_124"/>
</filter>
</defs>
</svg>
