<svg width="1051" height="899" viewBox="0 0 1051 899" fill="none" xmlns="http://www.w3.org/2000/svg">
<g filter="url(#filter0_i_3256_133)">
<rect width="1051" height="899" rx="40" fill="#2E2E2E"/>
<rect x="2" y="2" width="1047" height="895" rx="38" stroke="#A4A6A9" stroke-width="4"/>
<path fill-rule="evenodd" clip-rule="evenodd" d="M421.261 201.75L318.022 270.445L318.011 436.195L318 601.945H320.876C323.483 601.945 325.48 599.578 342.126 576.759C352.232 562.907 367.293 542.32 375.596 531.009L390.693 510.445L407.596 509.814C478.458 507.166 539.372 475.17 562.859 428.26C576.046 401.921 574.56 374.41 559.22 360.907C551.502 354.114 539.327 350.905 529.225 353.002C514.427 356.074 507.458 361.349 474.25 394.61C459.813 409.071 448 420.777 448 420.624C448 420.471 451.617 414.293 456.039 406.895C465.788 390.584 476.503 368.964 481.539 355.445C483.588 349.945 487.623 335.995 490.506 324.445C498.112 293.975 503.347 282.668 515.38 270.722C522.805 263.351 530.031 258.813 540.165 255.158C546.677 252.81 548.959 252.513 560.5 252.513C572.041 252.513 574.323 252.81 580.835 255.158C597.468 261.157 611.02 272.868 617.915 287.202C624.803 301.523 625.202 305.536 624.763 356.112C624.406 397.104 624.214 401.181 622.208 410.211C611.184 459.838 578.644 496.88 533 511.758C517.381 516.85 508.568 518.11 484.528 518.687L462.556 519.215L434.528 540.794C383.095 580.393 357.509 600.167 356.55 601.06C355.999 601.573 435.044 601.945 544.8 601.945H734V436.447V270.95L630.504 201.947C573.581 163.996 526.443 132.97 525.754 133C525.064 133.03 478.042 163.968 421.261 201.75ZM621.5 217.765L715.5 280.445L715.753 432.195L716.006 583.945L654.253 583.858L592.5 583.77L566.5 556.857C552.2 542.055 540.385 529.601 540.245 529.181C540.105 528.761 542.355 527.586 545.245 526.569C548.135 525.553 554.522 522.713 559.437 520.26C596.437 501.79 624.784 467.232 636.391 426.445C641.674 407.879 642.161 402.94 642.701 362.377L643.209 324.309L663.221 313.377C674.228 307.364 683.905 301.965 684.726 301.379C685.897 300.542 680.316 297.559 658.827 287.534C633.144 275.553 631.296 274.513 629.195 270.863C625.404 264.276 615.132 254.161 606.095 248.116C570.67 224.421 522.944 232.055 496.081 265.712C485.371 279.13 481.25 288.812 474.49 316.434C465.582 352.828 456.227 371.695 417.386 431.607C389.899 474.006 354.092 528.984 342.267 546.945L336.013 556.445L336.007 418.651L336 280.857L430.75 217.916C482.863 183.298 525.95 154.999 526.5 155.03C527.05 155.06 569.8 183.291 621.5 217.765ZM567.143 286.478C558.146 294.049 562.911 308.951 574.327 308.941C586.44 308.93 592.023 295.768 583.521 287.266C580.641 284.386 579.533 283.945 575.177 283.945C571.26 283.945 569.49 284.503 567.143 286.478ZM543.282 371.316C552.382 375.193 556.352 386.701 553.584 401.172C547.48 433.073 519.333 461.352 477.719 477.393C457.273 485.275 435.13 490.329 415.5 491.595L405.5 492.24L407.5 489.874C411.679 484.93 465.215 427.683 481.313 410.945C506.127 385.142 515.996 376.783 526.976 372.265C533.31 369.659 538.662 369.348 543.282 371.316ZM542.944 559.22L567.339 583.995L550.494 583.72L533.649 583.445L517.824 560.475C509.121 547.841 502 537.154 502 536.725C502 536.296 504.137 535.892 506.75 535.827C509.363 535.762 512.85 535.368 514.5 534.951C516.15 534.535 517.736 534.251 518.025 534.32C518.313 534.389 529.527 545.594 542.944 559.22ZM495.392 560.464C503.976 572.849 511 583.199 511 583.464C511 583.728 487.938 583.931 459.75 583.913L408.5 583.882L411.483 581.663C413.123 580.443 426.623 570.111 441.483 558.704L468.5 537.962L474.142 537.954L479.784 537.945L495.392 560.464Z" fill="#9998F8"/>
<path d="M121.916 750V658.92H158.384C165.085 658.92 170.673 659.913 175.15 661.899C179.627 663.886 182.992 666.643 185.246 670.171C187.499 673.67 188.625 677.702 188.625 682.268C188.625 685.826 187.914 688.954 186.491 691.652C185.068 694.32 183.111 696.514 180.62 698.234C178.16 699.924 175.343 701.124 172.171 701.836V702.725C175.639 702.874 178.886 703.852 181.91 705.661C184.964 707.469 187.44 710.004 189.337 713.265C191.235 716.497 192.183 720.351 192.183 724.828C192.183 729.661 190.983 733.975 188.581 737.77C186.209 741.535 182.696 744.515 178.041 746.709C173.386 748.903 167.649 750 160.83 750H121.916ZM141.173 734.257H156.872C162.238 734.257 166.152 733.234 168.613 731.188C171.074 729.113 172.304 726.355 172.304 722.916C172.304 720.396 171.696 718.172 170.481 716.245C169.265 714.318 167.531 712.806 165.277 711.709C163.054 710.612 160.4 710.063 157.317 710.063H141.173V734.257ZM141.173 697.033H155.449C158.087 697.033 160.43 696.573 162.475 695.654C164.551 694.705 166.182 693.371 167.367 691.652C168.583 689.932 169.191 687.871 169.191 685.47C169.191 682.179 168.02 679.525 165.677 677.509C163.365 675.493 160.074 674.485 155.805 674.485H141.173V697.033ZM204.358 750V681.69H223.303V750H204.358ZM213.875 672.884C211.058 672.884 208.642 671.95 206.626 670.082C204.639 668.185 203.646 665.917 203.646 663.278C203.646 660.669 204.639 658.43 206.626 656.562C208.642 654.665 211.058 653.716 213.875 653.716C216.692 653.716 219.093 654.665 221.08 656.562C223.096 658.43 224.104 660.669 224.104 663.278C224.104 665.917 223.096 668.185 221.08 670.082C219.093 671.95 216.692 672.884 213.875 672.884ZM238.48 750V681.69H256.847V693.608H257.558C258.804 689.369 260.894 686.167 263.829 684.002C266.764 681.808 270.144 680.711 273.969 680.711C274.918 680.711 275.941 680.771 277.038 680.889C278.135 681.008 279.098 681.171 279.928 681.378V698.189C279.039 697.922 277.808 697.685 276.237 697.478C274.666 697.27 273.228 697.166 271.923 697.166C269.136 697.166 266.646 697.774 264.452 698.99C262.287 700.176 260.568 701.836 259.293 703.971C258.048 706.105 257.425 708.566 257.425 711.353V750H238.48ZM311.715 751.112C306.527 751.112 301.827 749.778 297.617 747.109C293.437 744.411 290.116 740.453 287.655 735.235C285.224 729.987 284.009 723.553 284.009 715.934C284.009 708.107 285.269 701.599 287.789 696.41C290.309 691.192 293.659 687.293 297.84 684.714C302.05 682.105 306.66 680.8 311.671 680.8C315.495 680.8 318.683 681.452 321.232 682.757C323.812 684.032 325.887 685.633 327.459 687.56C329.06 689.458 330.275 691.325 331.105 693.164H331.684V658.92H350.585V750H331.906V739.06H331.105C330.216 740.957 328.956 742.84 327.325 744.708C325.724 746.546 323.634 748.073 321.055 749.288C318.505 750.504 315.392 751.112 311.715 751.112ZM317.719 736.036C320.773 736.036 323.352 735.205 325.457 733.545C327.592 731.855 329.223 729.498 330.349 726.474C331.506 723.45 332.084 719.907 332.084 715.845C332.084 711.783 331.521 708.255 330.394 705.26C329.267 702.266 327.637 699.953 325.502 698.323C323.367 696.692 320.773 695.877 317.719 695.877C314.606 695.877 311.982 696.721 309.847 698.411C307.713 700.101 306.097 702.444 305 705.438C303.903 708.433 303.354 711.902 303.354 715.845C303.354 719.818 303.903 723.331 305 726.385C306.127 729.409 307.742 731.781 309.847 733.501C311.982 735.191 314.606 736.036 317.719 736.036ZM366.517 750V658.92H402.985C409.685 658.92 415.274 659.913 419.751 661.899C424.228 663.886 427.593 666.643 429.846 670.171C432.1 673.67 433.226 677.702 433.226 682.268C433.226 685.826 432.515 688.954 431.092 691.652C429.668 694.32 427.712 696.514 425.221 698.234C422.76 699.924 419.944 701.124 416.771 701.836V702.725C420.24 702.874 423.487 703.852 426.511 705.661C429.565 707.469 432.04 710.004 433.938 713.265C435.835 716.497 436.784 720.351 436.784 724.828C436.784 729.661 435.583 733.975 433.182 737.77C430.81 741.535 427.297 744.515 422.642 746.709C417.987 748.903 412.25 750 405.431 750H366.517ZM385.774 734.257H401.473C406.839 734.257 410.753 733.234 413.213 731.188C415.674 729.113 416.905 726.355 416.905 722.916C416.905 720.396 416.297 718.172 415.081 716.245C413.866 714.318 412.131 712.806 409.878 711.709C407.654 710.612 405.001 710.063 401.917 710.063H385.774V734.257ZM385.774 697.033H400.049C402.688 697.033 405.03 696.573 407.076 695.654C409.152 694.705 410.782 693.371 411.968 691.652C413.184 689.932 413.792 687.871 413.792 685.47C413.792 682.179 412.62 679.525 410.278 677.509C407.966 675.493 404.675 674.485 400.405 674.485H385.774V697.033ZM479.823 751.334C472.915 751.334 466.94 749.867 461.9 746.931C456.89 743.967 453.02 739.845 450.293 734.568C447.565 729.261 446.201 723.109 446.201 716.112C446.201 709.055 447.565 702.888 450.293 697.611C453.02 692.304 456.89 688.183 461.9 685.247C466.94 682.283 472.915 680.8 479.823 680.8C486.731 680.8 492.69 682.283 497.701 685.247C502.741 688.183 506.625 692.304 509.353 697.611C512.08 702.888 513.444 709.055 513.444 716.112C513.444 723.109 512.08 729.261 509.353 734.568C506.625 739.845 502.741 743.967 497.701 746.931C492.69 749.867 486.731 751.334 479.823 751.334ZM479.912 736.658C483.054 736.658 485.678 735.769 487.783 733.99C489.888 732.181 491.475 729.72 492.542 726.607C493.639 723.494 494.187 719.951 494.187 715.978C494.187 712.005 493.639 708.462 492.542 705.349C491.475 702.236 489.888 699.775 487.783 697.967C485.678 696.158 483.054 695.254 479.912 695.254C476.739 695.254 474.071 696.158 471.907 697.967C469.772 699.775 468.156 702.236 467.059 705.349C465.992 708.462 465.458 712.005 465.458 715.978C465.458 719.951 465.992 723.494 467.059 726.607C468.156 729.72 469.772 732.181 471.907 733.99C474.071 735.769 476.739 736.658 479.912 736.658ZM539.15 681.69L551.691 705.572L564.544 681.69H583.978L564.188 715.845L584.512 750H565.166L551.691 726.385L538.438 750H518.87L539.15 715.845L519.581 681.69H539.15Z" fill="#9998F8"/>
<path d="M624.571 750V658.92H643.828V734.123H682.875V750H624.571ZM714.751 751.29C710.392 751.29 706.508 750.534 703.099 749.022C699.689 747.48 696.991 745.212 695.005 742.217C693.048 739.193 692.069 735.428 692.069 730.921C692.069 727.126 692.766 723.939 694.16 721.359C695.553 718.78 697.451 716.705 699.852 715.133C702.254 713.562 704.981 712.376 708.035 711.575C711.119 710.775 714.35 710.212 717.73 709.885C721.703 709.47 724.905 709.085 727.336 708.729C729.768 708.344 731.532 707.78 732.629 707.039C733.726 706.298 734.274 705.201 734.274 703.748V703.481C734.274 700.665 733.385 698.486 731.606 696.944C729.857 695.402 727.366 694.631 724.134 694.631C720.725 694.631 718.012 695.387 715.996 696.899C713.98 698.382 712.646 700.25 711.993 702.503L694.471 701.08C695.36 696.929 697.11 693.342 699.719 690.317C702.328 687.264 705.693 684.921 709.814 683.291C713.965 681.63 718.768 680.8 724.223 680.8C728.018 680.8 731.65 681.245 735.119 682.134C738.618 683.024 741.716 684.403 744.414 686.27C747.142 688.138 749.291 690.54 750.863 693.475C752.434 696.381 753.22 699.864 753.22 703.926V750H735.253V740.527H734.719C733.622 742.662 732.154 744.545 730.316 746.175C728.478 747.776 726.269 749.036 723.69 749.956C721.11 750.845 718.131 751.29 714.751 751.29ZM720.176 738.215C722.963 738.215 725.424 737.666 727.559 736.569C729.694 735.443 731.369 733.93 732.584 732.033C733.8 730.135 734.408 727.986 734.408 725.584V718.335C733.815 718.721 732.999 719.077 731.962 719.403C730.954 719.699 729.812 719.981 728.537 720.248C727.262 720.485 725.987 720.707 724.713 720.915C723.438 721.093 722.281 721.256 721.244 721.404C719.02 721.73 717.078 722.249 715.418 722.96C713.757 723.672 712.468 724.636 711.549 725.851C710.629 727.037 710.17 728.52 710.17 730.299C710.17 732.878 711.104 734.85 712.972 736.213C714.869 737.548 717.271 738.215 720.176 738.215ZM768.274 750V658.92H787.219V693.164H787.797C788.627 691.325 789.828 689.458 791.4 687.56C793.001 685.633 795.076 684.032 797.626 682.757C800.205 681.452 803.407 680.8 807.232 680.8C812.213 680.8 816.808 682.105 821.019 684.714C825.229 687.293 828.594 691.192 831.114 696.41C833.634 701.599 834.894 708.107 834.894 715.934C834.894 723.553 833.664 729.987 831.203 735.235C828.772 740.453 825.451 744.411 821.241 747.109C817.06 749.778 812.376 751.112 807.187 751.112C803.511 751.112 800.383 750.504 797.804 749.288C795.254 748.073 793.164 746.546 791.533 744.708C789.902 742.84 788.657 740.957 787.797 739.06H786.952V750H768.274ZM786.819 715.845C786.819 719.907 787.382 723.45 788.509 726.474C789.636 729.498 791.266 731.855 793.401 733.545C795.536 735.205 798.13 736.036 801.184 736.036C804.267 736.036 806.876 735.191 809.011 733.501C811.146 731.781 812.761 729.409 813.858 726.385C814.985 723.331 815.548 719.818 815.548 715.845C815.548 711.902 815 708.433 813.903 705.438C812.806 702.444 811.19 700.101 809.055 698.411C806.921 696.721 804.297 695.877 801.184 695.877C798.1 695.877 795.491 696.692 793.356 698.323C791.251 699.953 789.636 702.266 788.509 705.26C787.382 708.255 786.819 711.783 786.819 715.845ZM904.372 701.169L887.027 702.236C886.731 700.754 886.093 699.42 885.115 698.234C884.137 697.018 882.847 696.054 881.246 695.343C879.675 694.602 877.792 694.231 875.598 694.231C872.663 694.231 870.187 694.854 868.171 696.099C866.155 697.314 865.147 698.945 865.147 700.991C865.147 702.622 865.799 704 867.104 705.127C868.408 706.254 870.647 707.158 873.819 707.84L886.182 710.33C892.824 711.694 897.775 713.888 901.036 716.912C904.298 719.936 905.928 723.909 905.928 728.831C905.928 733.308 904.609 737.236 901.97 740.616C899.361 743.996 895.774 746.635 891.208 748.532C886.672 750.4 881.439 751.334 875.509 751.334C866.466 751.334 859.261 749.452 853.895 745.686C848.558 741.891 845.43 736.732 844.511 730.21L863.145 729.231C863.709 731.988 865.073 734.094 867.237 735.546C869.401 736.969 872.173 737.681 875.553 737.681C878.874 737.681 881.542 737.044 883.559 735.769C885.604 734.464 886.642 732.789 886.672 730.743C886.642 729.024 885.916 727.615 884.492 726.518C883.069 725.392 880.875 724.532 877.91 723.939L866.081 721.582C859.41 720.248 854.444 717.935 851.182 714.644C847.951 711.353 846.335 707.158 846.335 702.058C846.335 697.67 847.521 693.89 849.893 690.718C852.294 687.545 855.659 685.099 859.988 683.38C864.346 681.66 869.446 680.8 875.287 680.8C883.914 680.8 890.704 682.624 895.655 686.27C900.636 689.917 903.542 694.883 904.372 701.169Z" fill="#F3E9DC"/>
</g>
<defs>
<filter id="filter0_i_3256_133" x="0" y="0" width="1051" height="903" filterUnits="userSpaceOnUse" color-interpolation-filters="sRGB">
<feFlood flood-opacity="0" result="BackgroundImageFix"/>
<feBlend mode="normal" in="SourceGraphic" in2="BackgroundImageFix" result="shape"/>
<feColorMatrix in="SourceAlpha" type="matrix" values="0 0 0 0 0 0 0 0 0 0 0 0 0 0 0 0 0 0 127 0" result="hardAlpha"/>
<feMorphology radius="10" operator="erode" in="SourceAlpha" result="effect1_innerShadow_3256_133"/>
<feOffset dy="4"/>
<feGaussianBlur stdDeviation="5.65"/>
<feComposite in2="hardAlpha" operator="arithmetic" k2="-1" k3="1"/>
<feColorMatrix type="matrix" values="0 0 0 0 0.643137 0 0 0 0 0.65098 0 0 0 0 0.662745 0 0 0 0.19 0"/>
<feBlend mode="normal" in2="shape" result="effect1_innerShadow_3256_133"/>
</filter>
</defs>
</svg>
