<svg width="180" height="27" viewBox="0 0 180 27" fill="none" xmlns="http://www.w3.org/2000/svg">
<path fill-rule="evenodd" clip-rule="evenodd" d="M5.70914 4.06364L0.00121652 7.8291L0.000607417 16.9146L0 26H0.15901C0.303147 26 0.413558 25.8703 1.33389 24.6195C1.89263 23.8602 2.72533 22.7317 3.18439 22.1117L4.01908 20.9845L4.95363 20.9499C8.87148 20.8048 12.2393 19.0509 13.5379 16.4796C14.267 15.0358 14.1848 13.5279 13.3367 12.7877C12.91 12.4153 12.2368 12.2394 11.6783 12.3544C10.8601 12.5228 10.4748 12.8119 8.63882 14.6351C7.84062 15.4278 7.1875 16.0694 7.1875 16.061C7.1875 16.0527 7.38748 15.714 7.63196 15.3085C8.17097 14.4144 8.76339 13.2293 9.04182 12.4883C9.15511 12.1868 9.37819 11.4222 9.53759 10.7891C9.95811 9.11888 10.2476 8.4991 10.9128 7.84428C11.3234 7.44025 11.7229 7.1915 12.2832 6.99116C12.6432 6.86245 12.7694 6.84617 13.4075 6.84617C14.0455 6.84617 14.1717 6.86245 14.5317 6.99116C15.4514 7.31999 16.2006 7.96192 16.5818 8.74762C16.9627 9.53262 16.9847 9.75258 16.9605 12.5249C16.9407 14.7718 16.9301 14.9953 16.8192 15.4903C16.2097 18.2105 14.4106 20.2409 11.887 21.0565C11.0235 21.3356 10.5362 21.4047 9.20708 21.4363L7.99228 21.4652L6.44265 22.6481C3.599 24.8186 2.18439 25.9025 2.13137 25.9515C2.10091 25.9796 6.47118 26 12.5394 26H23V16.9284V7.85678L17.2779 4.07444C14.1307 1.99419 11.5245 0.293523 11.4864 0.295167C11.4482 0.296812 8.84847 1.99265 5.70914 4.06364ZM16.78 4.94149L21.9772 8.37724L21.9912 16.6953L22.0051 25.0133L18.5909 25.0086L15.1767 25.0038L13.7392 23.5285C12.9486 22.7172 12.2953 22.0345 12.2876 22.0115C12.2798 21.9885 12.4042 21.9241 12.564 21.8683C12.7238 21.8126 13.0769 21.657 13.3487 21.5225C15.3944 20.5101 16.9616 18.6158 17.6033 16.3801C17.8954 15.3624 17.9224 15.0917 17.9522 12.8683L17.9803 10.7816L19.0867 10.1824C19.6953 9.85279 20.2303 9.55684 20.2757 9.52472C20.3405 9.47884 20.0319 9.31533 18.8438 8.76582C17.4238 8.10909 17.3217 8.05209 17.2055 7.85201C16.9959 7.49095 16.428 6.93651 15.9283 6.60516C13.9697 5.30633 11.331 5.72478 9.84582 7.56967C9.25369 8.30516 9.02584 8.83587 8.65209 10.35C8.15958 12.3449 7.64236 13.379 5.4949 16.6631C3.97518 18.9871 1.99547 22.0007 1.34168 22.9852L0.995911 23.506L0.995579 15.9529L0.995192 8.39983L6.23377 4.94977C9.11502 3.05221 11.4972 1.50102 11.5276 1.50272C11.5581 1.50437 13.9216 3.05183 16.78 4.94149ZM13.7747 8.70794C13.2773 9.12293 13.5408 9.93978 14.1719 9.93923C14.8416 9.93862 15.1503 9.21716 14.6802 8.75113C14.521 8.59327 14.4598 8.56909 14.2189 8.56909C14.0024 8.56909 13.9045 8.59968 13.7747 8.70794ZM12.4555 13.3583C12.9586 13.5708 13.1781 14.2016 13.0251 14.9948C12.6876 16.7434 11.1314 18.2935 8.83062 19.1728C7.70019 19.6048 6.47594 19.8819 5.39062 19.9513L4.83774 19.9866L4.94832 19.8569C5.17937 19.5859 8.13929 16.448 9.02932 15.5305C10.4013 14.1161 10.9469 13.6579 11.554 13.4103C11.9042 13.2674 12.2001 13.2504 12.4555 13.3583ZM12.4368 23.6581L13.7856 25.0161L12.8542 25.001L11.9229 24.9859L11.048 23.7269C10.5668 23.0343 10.1731 22.4485 10.1731 22.425C10.1731 22.4015 10.2912 22.3794 10.4357 22.3758C10.5802 22.3722 10.773 22.3506 10.8642 22.3278C10.9554 22.305 11.0431 22.2894 11.0591 22.2932C11.075 22.297 11.695 22.9112 12.4368 23.6581ZM9.80773 23.7263C10.2823 24.4051 10.6707 24.9725 10.6707 24.987C10.6707 25.0014 9.39561 25.0126 7.83714 25.0116L5.00361 25.0099L5.16853 24.8883C5.2592 24.8214 6.0056 24.255 6.82719 23.6298L8.32091 22.4928L8.63285 22.4924L8.94479 22.4919L9.80773 23.7263Z" fill="#9998F8"/>
<path d="M22.5774 26V7.85105H29.8441C31.1792 7.85105 32.2929 8.04896 33.185 8.44479C34.0771 8.84061 34.7476 9.39005 35.1966 10.0931C35.6456 10.7902 35.8701 11.5937 35.8701 12.5035C35.8701 13.2124 35.7283 13.8357 35.4447 14.3733C35.1611 14.905 34.7712 15.3422 34.275 15.6849C33.7846 16.0216 33.2234 16.2609 32.5912 16.4027V16.5799C33.2824 16.6095 33.9294 16.8044 34.532 17.1648C35.1405 17.5252 35.6338 18.0303 36.0119 18.6802C36.39 19.3241 36.579 20.0921 36.579 20.9842C36.579 21.9472 36.3398 22.8068 35.8612 23.563C35.3886 24.3133 34.6885 24.907 33.761 25.3442C32.8334 25.7814 31.6903 26 30.3315 26H22.5774ZM26.4146 22.8629H29.5428C30.6121 22.8629 31.3919 22.6591 31.8823 22.2515C32.3726 21.8379 32.6178 21.2885 32.6178 20.6032C32.6178 20.101 32.4967 19.6579 32.2545 19.2739C32.0123 18.8899 31.6666 18.5886 31.2176 18.37C30.7746 18.1514 30.2458 18.0421 29.6314 18.0421H26.4146V22.8629ZM26.4146 15.4456H29.2592C29.785 15.4456 30.2517 15.354 30.6594 15.1709C31.0729 14.9818 31.3978 14.716 31.6342 14.3733C31.8764 14.0307 31.9975 13.6201 31.9975 13.1415C31.9975 12.4858 31.7641 11.957 31.2974 11.5553C30.8366 11.1535 30.1808 10.9527 29.3301 10.9527H26.4146V15.4456ZM39.0049 26V12.3883H42.7801V26H39.0049ZM40.9014 10.6337C40.3401 10.6337 39.8586 10.4476 39.4569 10.0754C39.0611 9.69725 38.8632 9.2453 38.8632 8.7195C38.8632 8.19961 39.0611 7.75357 39.4569 7.38137C39.8586 7.00327 40.3401 6.81422 40.9014 6.81422C41.4626 6.81422 41.9412 7.00327 42.337 7.38137C42.7387 7.75357 42.9396 8.19961 42.9396 8.7195C42.9396 9.2453 42.7387 9.69725 42.337 10.0754C41.9412 10.4476 41.4626 10.6337 40.9014 10.6337ZM45.8042 26V12.3883H49.4641V14.7632H49.6059C49.854 13.9184 50.2705 13.2804 50.8554 12.8491C51.4403 12.4119 52.1138 12.1933 52.8759 12.1933C53.0649 12.1933 53.2687 12.2051 53.4873 12.2288C53.7059 12.2524 53.8979 12.2849 54.0633 12.3263V15.676C53.8861 15.6228 53.6409 15.5756 53.3278 15.5342C53.0147 15.4929 52.7282 15.4722 52.4682 15.4722C51.9129 15.4722 51.4166 15.5933 50.9794 15.8355C50.5482 16.0718 50.2055 16.4027 49.9515 16.828C49.7033 17.2534 49.5793 17.7438 49.5793 18.2991V26H45.8042ZM60.3973 26.2215C59.3634 26.2215 58.427 25.9557 57.5881 25.424C56.7551 24.8864 56.0934 24.0977 55.6031 23.0579C55.1186 22.0122 54.8764 20.7302 54.8764 19.2119C54.8764 17.6522 55.1275 16.3554 55.6297 15.3215C56.1318 14.2818 56.7994 13.5049 57.6324 12.9909C58.4714 12.471 59.39 12.2111 60.3885 12.2111C61.1506 12.2111 61.7857 12.341 62.2937 12.601C62.8077 12.855 63.2213 13.174 63.5344 13.558C63.8534 13.9361 64.0956 14.3083 64.2611 14.6746H64.3763V7.85105H68.1425V26H64.4206V23.82H64.2611C64.0838 24.1981 63.8327 24.5733 63.5078 24.9454C63.1888 25.3117 62.7723 25.616 62.2583 25.8582C61.7502 26.1004 61.1299 26.2215 60.3973 26.2215ZM61.5937 23.2174C62.2022 23.2174 62.7162 23.052 63.1356 22.7211C63.561 22.3844 63.8859 21.9147 64.1104 21.3121C64.3408 20.7095 64.456 20.0035 64.456 19.1941C64.456 18.3848 64.3438 17.6817 64.1193 17.085C63.8948 16.4883 63.5698 16.0275 63.1445 15.7026C62.7191 15.3777 62.2022 15.2152 61.5937 15.2152C60.9733 15.2152 60.4505 15.3836 60.0251 15.7203C59.5998 16.0571 59.2778 16.5238 59.0592 17.1205C58.8406 17.7172 58.7313 18.4084 58.7313 19.1941C58.7313 19.9858 58.8406 20.6859 59.0592 21.2944C59.2837 21.897 59.6057 22.3696 60.0251 22.7123C60.4505 23.049 60.9733 23.2174 61.5937 23.2174ZM71.3173 26V7.85105H78.5839C79.9191 7.85105 81.0327 8.04896 81.9248 8.44479C82.8169 8.84061 83.4875 9.39005 83.9365 10.0931C84.3855 10.7902 84.6099 11.5937 84.6099 12.5035C84.6099 13.2124 84.4682 13.8357 84.1846 14.3733C83.901 14.905 83.5111 15.3422 83.0148 15.6849C82.5245 16.0216 81.9632 16.2609 81.3311 16.4027V16.5799C82.0223 16.6095 82.6692 16.8044 83.2718 17.1648C83.8803 17.5252 84.3736 18.0303 84.7517 18.6802C85.1298 19.3241 85.3189 20.0921 85.3189 20.9842C85.3189 21.9472 85.0796 22.8068 84.6011 23.563C84.1285 24.3133 83.4284 24.907 82.5008 25.3442C81.5733 25.7814 80.4301 26 79.0713 26H71.3173ZM75.1544 22.8629H78.2826C79.352 22.8629 80.1318 22.6591 80.6221 22.2515C81.1125 21.8379 81.3577 21.2885 81.3577 20.6032C81.3577 20.101 81.2366 19.6579 80.9943 19.2739C80.7521 18.8899 80.4065 18.5886 79.9575 18.37C79.5144 18.1514 78.9857 18.0421 78.3712 18.0421H75.1544V22.8629ZM75.1544 15.4456H77.9991C78.5249 15.4456 78.9916 15.354 79.3992 15.1709C79.8128 14.9818 80.1377 14.716 80.374 14.3733C80.6162 14.0307 80.7373 13.6201 80.7373 13.1415C80.7373 12.4858 80.504 11.957 80.0373 11.5553C79.5765 11.1535 78.9207 10.9527 78.0699 10.9527H75.1544V15.4456ZM93.8949 26.2659C92.5184 26.2659 91.3279 25.9734 90.3236 25.3885C89.3252 24.7978 88.5542 23.9766 88.0107 22.925C87.4671 21.8675 87.1954 20.6416 87.1954 19.2473C87.1954 17.8412 87.4671 16.6124 88.0107 15.5608C88.5542 14.5033 89.3252 13.6821 90.3236 13.0972C91.3279 12.5064 92.5184 12.2111 93.8949 12.2111C95.2714 12.2111 96.4589 12.5064 97.4573 13.0972C98.4617 13.6821 99.2356 14.5033 99.7791 15.5608C100.323 16.6124 100.594 17.8412 100.594 19.2473C100.594 20.6416 100.323 21.8675 99.7791 22.925C99.2356 23.9766 98.4617 24.7978 97.4573 25.3885C96.4589 25.9734 95.2714 26.2659 93.8949 26.2659ZM93.9126 23.3415C94.5389 23.3415 95.0617 23.1642 95.4812 22.8098C95.9006 22.4494 96.2167 21.959 96.4294 21.3387C96.648 20.7184 96.7573 20.0124 96.7573 19.2207C96.7573 18.4291 96.648 17.7231 96.4294 17.1028C96.2167 16.4824 95.9006 15.9921 95.4812 15.6317C95.0617 15.2713 94.5389 15.0911 93.9126 15.0911C93.2805 15.0911 92.7488 15.2713 92.3175 15.6317C91.8921 15.9921 91.5701 16.4824 91.3516 17.1028C91.1389 17.7231 91.0325 18.4291 91.0325 19.2207C91.0325 20.0124 91.1389 20.7184 91.3516 21.3387C91.5701 21.959 91.8921 22.4494 92.3175 22.8098C92.7488 23.1642 93.2805 23.3415 93.9126 23.3415ZM105.717 12.3883L108.216 17.1471L110.777 12.3883H114.649L110.706 19.1941L114.756 26H110.901L108.216 21.2944L105.575 26H101.676L105.717 19.1941L101.817 12.3883H105.717Z" fill="#9998F8"/>
<path d="M122.738 26V7.85105H126.575V22.8363H134.356V26H122.738ZM140.707 26.257C139.839 26.257 139.065 26.1063 138.386 25.805C137.706 25.4978 137.169 25.0459 136.773 24.4492C136.383 23.8466 136.188 23.0963 136.188 22.1983C136.188 21.4421 136.327 20.807 136.604 20.293C136.882 19.779 137.26 19.3655 137.739 19.0524C138.217 18.7392 138.761 18.5029 139.369 18.3434C139.984 18.1839 140.628 18.0716 141.301 18.0067C142.093 17.924 142.731 17.8472 143.215 17.7763C143.7 17.6995 144.051 17.5872 144.27 17.4395C144.488 17.2918 144.598 17.0732 144.598 16.7837V16.7306C144.598 16.1693 144.42 15.7351 144.066 15.4279C143.717 15.1207 143.221 14.9671 142.577 14.9671C141.898 14.9671 141.357 15.1177 140.955 15.419C140.554 15.7144 140.288 16.0866 140.158 16.5356L136.666 16.252C136.844 15.4249 137.192 14.7101 137.712 14.1075C138.232 13.499 138.902 13.0322 139.724 12.7073C140.551 12.3765 141.508 12.2111 142.595 12.2111C143.351 12.2111 144.075 12.2997 144.766 12.4769C145.463 12.6541 146.081 12.9289 146.618 13.301C147.162 13.6732 147.59 14.1518 147.903 14.7367C148.216 15.3156 148.373 16.0098 148.373 16.8192V26H144.793V24.1124H144.686C144.468 24.5378 144.175 24.913 143.809 25.2379C143.443 25.5569 143.003 25.808 142.489 25.9911C141.975 26.1684 141.381 26.257 140.707 26.257ZM141.788 23.6516C142.344 23.6516 142.834 23.5423 143.26 23.3237C143.685 23.0992 144.019 22.7979 144.261 22.4198C144.503 22.0417 144.624 21.6134 144.624 21.1349V19.6904C144.506 19.7672 144.344 19.8381 144.137 19.9031C143.936 19.9622 143.709 20.0183 143.454 20.0715C143.2 20.1187 142.946 20.163 142.692 20.2044C142.438 20.2398 142.208 20.2723 142.001 20.3019C141.558 20.3669 141.171 20.4702 140.84 20.612C140.509 20.7538 140.252 20.9458 140.069 21.188C139.886 21.4244 139.795 21.7198 139.795 22.0742C139.795 22.5882 139.981 22.9811 140.353 23.2528C140.731 23.5187 141.209 23.6516 141.788 23.6516ZM151.372 26V7.85105H155.148V14.6746H155.263C155.428 14.3083 155.668 13.9361 155.981 13.558C156.3 13.174 156.713 12.855 157.221 12.601C157.735 12.341 158.373 12.2111 159.135 12.2111C160.128 12.2111 161.044 12.471 161.883 12.9909C162.721 13.5049 163.392 14.2818 163.894 15.3215C164.396 16.3554 164.647 17.6522 164.647 19.2119C164.647 20.7302 164.402 22.0122 163.912 23.0579C163.427 24.0977 162.766 24.8864 161.927 25.424C161.094 25.9557 160.16 26.2215 159.127 26.2215C158.394 26.2215 157.771 26.1004 157.257 25.8582C156.749 25.616 156.332 25.3117 156.007 24.9454C155.682 24.5733 155.434 24.1981 155.263 23.82H155.094V26H151.372ZM155.068 19.1941C155.068 20.0035 155.18 20.7095 155.405 21.3121C155.629 21.9147 155.954 22.3844 156.379 22.7211C156.805 23.052 157.322 23.2174 157.93 23.2174C158.545 23.2174 159.065 23.049 159.49 22.7123C159.915 22.3696 160.237 21.897 160.456 21.2944C160.68 20.6859 160.793 19.9858 160.793 19.1941C160.793 18.4084 160.683 17.7172 160.465 17.1205C160.246 16.5238 159.924 16.0571 159.499 15.7203C159.073 15.3836 158.551 15.2152 157.93 15.2152C157.316 15.2152 156.796 15.3777 156.371 15.7026C155.951 16.0275 155.629 16.4883 155.405 17.085C155.18 17.6817 155.068 18.3848 155.068 19.1941ZM178.492 16.2698L175.036 16.4824C174.977 16.187 174.85 15.9212 174.655 15.6849C174.46 15.4427 174.203 15.2506 173.884 15.1089C173.571 14.9612 173.195 14.8873 172.758 14.8873C172.173 14.8873 171.68 15.0114 171.278 15.2595C170.877 15.5017 170.676 15.8267 170.676 16.2343C170.676 16.5592 170.806 16.834 171.066 17.0585C171.326 17.2829 171.772 17.4631 172.404 17.599L174.867 18.0953C176.191 18.367 177.177 18.8042 177.827 19.4068C178.477 20.0094 178.802 20.8011 178.802 21.7818C178.802 22.6739 178.539 23.4567 178.013 24.1302C177.493 24.8037 176.779 25.3295 175.869 25.7076C174.965 26.0798 173.922 26.2659 172.74 26.2659C170.939 26.2659 169.503 25.8907 168.434 25.1404C167.37 24.3842 166.747 23.3562 166.564 22.0565L170.277 21.8615C170.389 22.411 170.661 22.8304 171.092 23.1199C171.523 23.4035 172.076 23.5453 172.749 23.5453C173.411 23.5453 173.943 23.4183 174.344 23.1642C174.752 22.9043 174.959 22.5705 174.965 22.1628C174.959 21.8202 174.814 21.5396 174.531 21.321C174.247 21.0965 173.81 20.9251 173.219 20.807L170.862 20.3373C169.533 20.0715 168.543 19.6106 167.893 18.9549C167.249 18.2991 166.927 17.4631 166.927 16.447C166.927 15.5726 167.163 14.8194 167.636 14.1872C168.115 13.5551 168.785 13.0677 169.648 12.725C170.516 12.3824 171.532 12.2111 172.696 12.2111C174.415 12.2111 175.768 12.5744 176.755 13.301C177.747 14.0277 178.326 15.0173 178.492 16.2698Z" fill="#F3E9DC"/>
</svg>
